<?xml version="1.0" encoding="UTF-8" standalone="no"?>
<!DOCTYPE svg PUBLIC "-//W3C//DTD SVG 1.1//EN" "http://www.w3.org/Graphics/SVG/1.1/DTD/svg11.dtd">
<svg width="100%" height="100%" viewBox="0 0 1024 1024" version="1.1" xmlns="http://www.w3.org/2000/svg" xmlns:xlink="http://www.w3.org/1999/xlink" xml:space="preserve" xmlns:serif="http://www.serif.com/" style="fill-rule:evenodd;clip-rule:evenodd;stroke-linecap:round;stroke-linejoin:round;stroke-miterlimit:1.5;">
    <g transform="matrix(0.850506,-1.73472e-18,1.73472e-18,0.850506,80.7068,69.9664)">
        <g transform="matrix(1.00195,0,0,1.00195,0.0252238,0.874695)">
            <path d="M1024,256C1024,114.71 909.29,0 768,0L256,0C114.71,0 0,114.71 0,256L0,768C0,909.29 114.71,1024 256,1024L768,1024C909.29,1024 1024,909.29 1024,768L1024,256Z" style="fill:rgb(4,4,4);"/>
        </g>
        <g transform="matrix(0.915146,0,0,0.915146,44.5654,65.8068)">
            <path d="M512,768.884C501.729,772.526 491.443,776.172 480.962,779.157C452.407,787.29 431.74,790.732 401.651,794.577C326.292,804.208 245.151,790.218 181.026,748.463C181.195,744.045 181.365,739.617 181.908,735.229C184.711,712.589 186.772,697.814 192.284,676.627C202.762,636.355 218.912,597.271 242.32,562.709C256.38,541.949 272.437,522.866 291.124,506.081C352.058,451.351 431.337,426.294 512,421.32C516.389,421.115 520.792,420.909 525.181,421.122C547.659,422.214 562.419,423.181 583.603,427.42C623.856,435.473 663.06,450.047 697.432,472.775C721.713,488.83 734.107,500.571 754.225,521.856C813.063,584.107 835.261,676.376 840.526,759.229C836.261,761.465 831.984,763.706 827.54,765.562C804.928,775.005 789.873,781.032 767.129,787.042C724.635,798.27 680.119,803.429 636.257,798.518C606.056,795.137 589.185,790.234 560.434,779.96C478.983,750.851 418.953,676.551 380.43,602.303C378.559,598.84 376.683,595.366 375.149,591.741C367.163,572.857 362.211,560.532 357.252,541.49C347.618,504.49 343.766,465.846 347.78,427.724C359.023,320.962 427.218,235.307 512,174.752C514.657,176.087 517.319,177.424 519.86,178.967C526.796,183.181 533.833,187.268 540.414,192.016C562.839,208.193 583.445,226.063 601.46,247.049C659.442,314.594 683.849,401.607 676.263,489.862C676.297,492.324 676.331,494.792 676.174,497.25C675.74,504.071 675.427,510.914 674.493,517.685C670.163,549.066 662.067,579.744 649.379,608.812C620.608,674.722 571.838,729.383 512,768.884" style="fill:none;stroke:white;stroke-width:48.18px;"/>
        </g>
    </g>
</svg>
